<mxfile host="app.diagrams.net" modified="2023-05-21T18:31:23.951Z" agent="Mozilla/5.0 (Windows NT 10.0; Win64; x64) AppleWebKit/537.36 (KHTML, like Gecko) Chrome/113.0.0.0 Safari/537.36" etag="rs5T19KysjnFFu-fGt3s" version="21.1.1" type="device">
  <diagram name="Page-1" id="j3StbL9kdqbgPOIKrsbc">
    <mxGraphModel dx="2074" dy="1059" grid="1" gridSize="10" guides="1" tooltips="1" connect="1" arrows="1" fold="1" page="1" pageScale="1" pageWidth="850" pageHeight="1100" math="0" shadow="0">
      <root>
        <mxCell id="0" />
        <mxCell id="1" parent="0" />
        <mxCell id="-KHrD7k6fx0QTuhkA_9m-13" value="" style="rounded=0;whiteSpace=wrap;html=1;" vertex="1" parent="1">
          <mxGeometry x="20" y="20" width="720" height="480" as="geometry" />
        </mxCell>
        <mxCell id="-KHrD7k6fx0QTuhkA_9m-3" style="edgeStyle=orthogonalEdgeStyle;rounded=0;orthogonalLoop=1;jettySize=auto;html=1;fontFamily=Verdana;" edge="1" parent="1" source="8EOTyNGZ8bpAmKC-JRBx-2" target="8EOTyNGZ8bpAmKC-JRBx-3">
          <mxGeometry relative="1" as="geometry" />
        </mxCell>
        <mxCell id="8EOTyNGZ8bpAmKC-JRBx-2" value="Get files from a directory path recursively." style="rounded=0;whiteSpace=wrap;html=1;fillColor=#dae8fc;strokeColor=#6c8ebf;fontFamily=Verdana;" parent="1" vertex="1">
          <mxGeometry x="40" y="40" width="280" height="80" as="geometry" />
        </mxCell>
        <mxCell id="-KHrD7k6fx0QTuhkA_9m-5" style="edgeStyle=orthogonalEdgeStyle;rounded=0;orthogonalLoop=1;jettySize=auto;html=1;fontFamily=Verdana;" edge="1" parent="1" source="8EOTyNGZ8bpAmKC-JRBx-3" target="-KHrD7k6fx0QTuhkA_9m-4">
          <mxGeometry relative="1" as="geometry" />
        </mxCell>
        <mxCell id="8EOTyNGZ8bpAmKC-JRBx-3" value="Identify if file is an image.&lt;br&gt;(Do not rely on extension)" style="rounded=0;whiteSpace=wrap;html=1;fillColor=#d5e8d4;strokeColor=#82b366;fontFamily=Verdana;" parent="1" vertex="1">
          <mxGeometry x="120" y="160" width="280" height="80" as="geometry" />
        </mxCell>
        <mxCell id="-KHrD7k6fx0QTuhkA_9m-7" style="edgeStyle=orthogonalEdgeStyle;rounded=0;orthogonalLoop=1;jettySize=auto;html=1;exitX=0.5;exitY=1;exitDx=0;exitDy=0;entryX=0.475;entryY=-0.067;entryDx=0;entryDy=0;entryPerimeter=0;fontFamily=Verdana;" edge="1" parent="1" source="-KHrD7k6fx0QTuhkA_9m-4" target="-KHrD7k6fx0QTuhkA_9m-6">
          <mxGeometry relative="1" as="geometry" />
        </mxCell>
        <mxCell id="-KHrD7k6fx0QTuhkA_9m-4" value="Perform OCR on image to retrieve text." style="rounded=0;whiteSpace=wrap;html=1;fillColor=#e1d5e7;strokeColor=#9673a6;fontFamily=Verdana;" vertex="1" parent="1">
          <mxGeometry x="200" y="280" width="280" height="80" as="geometry" />
        </mxCell>
        <mxCell id="-KHrD7k6fx0QTuhkA_9m-6" value="Check text for keywords.&lt;br&gt;&lt;br&gt;If keyword matched, print file path and text content." style="rounded=0;whiteSpace=wrap;html=1;fillColor=#fff2cc;strokeColor=#d6b656;fontFamily=Verdana;" vertex="1" parent="1">
          <mxGeometry x="280" y="400" width="280" height="80" as="geometry" />
        </mxCell>
        <mxCell id="-KHrD7k6fx0QTuhkA_9m-11" value="&lt;p style=&quot;border-color: var(--border-color); color: rgb(0, 0, 0); font-size: 12px; font-style: normal; font-variant-ligatures: normal; font-variant-caps: normal; letter-spacing: normal; orphans: 2; text-align: left; text-indent: 0px; text-transform: none; widows: 2; word-spacing: 0px; -webkit-text-stroke-width: 0px; background-color: rgb(251, 251, 251); text-decoration-thickness: initial; text-decoration-style: initial; text-decoration-color: initial; line-height: 12px;&quot;&gt;&lt;b&gt;&amp;nbsp;Initial Build Specifications&lt;/b&gt;&lt;/p&gt;&lt;ul style=&quot;border-color: var(--border-color); color: rgb(0, 0, 0); font-size: 12px; font-style: normal; font-variant-ligatures: normal; font-variant-caps: normal; letter-spacing: normal; orphans: 2; text-align: left; text-indent: 0px; text-transform: none; widows: 2; word-spacing: 0px; -webkit-text-stroke-width: 0px; background-color: rgb(251, 251, 251); text-decoration-thickness: initial; text-decoration-style: initial; text-decoration-color: initial; line-height: 12px;&quot;&gt;&lt;li style=&quot;border-color: var(--border-color);&quot;&gt;Windows Support&lt;/li&gt;&lt;li style=&quot;font-weight: 400; border-color: var(--border-color);&quot;&gt;Image Files only (e.g., not PDF)&lt;/li&gt;&lt;/ul&gt;" style="text;whiteSpace=wrap;html=1;strokeColor=#666666;fillColor=#f5f5f5;fontColor=#333333;fontFamily=Verdana;" vertex="1" parent="1">
          <mxGeometry x="480" y="140" width="240" height="80" as="geometry" />
        </mxCell>
      </root>
    </mxGraphModel>
  </diagram>
</mxfile>
